<svg xmlns="http://www.w3.org/2000/svg" width="395" height="112.93" viewBox="0 0 395 112.93">
  <g id="LOGO_AQUA-Carpatica" transform="translate(-59.03 -53.471)">
    <g id="Group_17" data-name="Group 17" transform="translate(185.407 53.746)">
      <path id="Path_289" data-name="Path 289" d="M465.812,98.488,445.443,53.8h-3.79l-32.479,69.354-.778,1.677h11.544l10.6-24.889h25.341l9.928,24.772.055.117h11.945ZM443.1,91.739h-8.648L443.1,71.761l.336-.783,8.315,20.761Zm-33.927,14,.225-.668.444-2.957.115-3.072V55.972H399.021V99.44l-.109,1.95-.342,1.73-.5,1.675-.615,1.505-.836,1.392-1,1.287-1.066,1.171-1.285,1-1.337.954-1.451.78-1.507.666-1.618.56-1.673.446-1.731.333-1.782.169-1.729.059-1.789-.059-1.785-.225-1.73-.277-1.674-.446-1.619-.56-1.5-.666-1.455-.842-1.339-.892-1.228-1.06-1.119-1.17-1-1.229-.78-1.392-.672-1.561-.5-1.62-.281-1.73-.108-1.95V55.972H350.867v42.07l.167,3.182.447,3.014.724,2.843,1.007,2.683,1.228,2.451,1.505,2.289,1.728,2.064,1.9,1.843,2.121,1.668,2.291,1.456,2.451,1.228,2.572,1,2.729.836,2.791.554,2.9.336,3.019.117,2.95-.117,2.9-.336,2.79-.5,2.738-.782,2.564-.952,2.455-1.17,2.29-1.392,2.067-1.617,1.949-1.791,1.731-2.006,1.507-2.18,1.228-2.4,1-2.565Zm-64-19.3-.056-.951-.109-.894-.168-.834-.169-.893-.166-.893-.169-.841-.224-.835-.274-.836-.226-.835-.225-.838-.334-.783-.336-.834-.337-.782L342,74.608l-.391-.777-.392-.783-.447-.782-.447-.725-.5-.782-.5-.724-.506-.723-.559-.729-.549-.671-.564-.724-.613-.67-.615-.668-.665-.67-.615-.67-.67-.615-.673-.615-.671-.555-.666-.559-.673-.56-.724-.556-.724-.5L329.1,60.1l-.782-.5-.724-.447-.782-.445-.782-.4-.835-.386-.781-.391-.839-.392-.78-.334-.893-.333-.833-.277-.839-.285-.892-.274-.837-.225-.893-.225-.837-.22h-.054l-.9-.167-.891-.169-.894-.164-.894-.113-.89-.11-.951-.057-.894-.053h-.948l-.948-.058-.892.058h-.891l-.952.053-.893.057-.892.11-.894.113-.891.164-.836.169-.892.167-.894.168-.833.22-.9.282-.835.223-.84.279-.839.335-.833.279-.84.388-.78.336-.838.388-.782.4-.777.39-.781.445-.728.447-.778.5-.726.5-.724.5-.728.5-.729.556-.22.167-.445.388-.725.614-.67.615-.672.615-.612.615-.614.666-.613.672-.609.615-.564.724-.5.666-.558.732-.5.667-.5.724-.449.782-.443.726-.448.782-.449.782-.383.78-.119.165-.278.613-.333.838-.338.783-.331.838-.279.834-.279.782-.279.835-.224.838-.226.837-.163.835-.165.841-.167.835-.116.892-.113.838-.05.837-.059.893-.058.834V89.5l.058,1.566.059,1.562.163,1.5.225,1.507.224,1.452.335,1.451.387,1.393.449,1.451.5,1.339.559,1.341.5,1.117.119.223.723,1.338.721,1.229.781,1.281.9,1.228.9,1.227.945,1.173,1,1.113,1.063,1.061,1.117,1,1.112.952.5.446.667.5,1.17.835,1.233.834,1.279.731,1.34.725,1.344.666,1.388.614,1.459.555,1.446.506,1.509.446,1.565.388,1.113.167,1.058.171,1.063.109,1.058.117,1.064.05,1.111.059,1.063.059h3.235l1.06-.059,1.117-.109,1.062-.059,1.111-.167,1.117-.112,1.061-.226h.055l.837-.22.777-.226.789-.219.725-.278.777-.277.724-.28.724-.278.446-.176.28.176.284.109.278.111.279.11.276.109.277.168.279.119.784.275.724.279.783.278.724.279.724.227.726.22.724.167.732.17.665.167.725.109.673.11.666.117.671.051.671.059.673.053h2.062l.11-.053h.167l.279-.059,6.977-6.08.223-.279.109-.337.058-.385-.114-.337-.167-.279-.279-.278-.391-.116h-.333l-.393.06-.332.056-.337.053-.665.117-.338.05-.333.059-.283.053h-.279l-.555.059h-.279l-.284.05h-1.558l-.783-.05-.777-.059-.841-.112-.777-.109-.84-.167-.841-.17-.838-.225-.22-.05-.446-.111.724-.563.893-.725.9-.834.889-.783.835-.835.783-.893.782-.892.949-1.174.891-1.174.782-1.17.724-1.282.725-1.228.616-1.281L343,102.9l.5-1.285.389-1.4.391-1.334.337-1.4.278-1.448.222-1.453.114-1.453.111-1.507v-3.4l-.056-.894ZM334.74,89.785v.67l-.055.673v.611l-.056.669-.117.615-.05.67-.111.611-.118.615-.109.613-.166.616-.172.614-.164.614-.171.615-.224.607-.22.618-.222.61-.56,1.171-.559,1.119-.611,1.113-.726,1.061-.726,1.06-.782,1.01-.833.943-.9.951-.614.617-.671.609-.67.56-.666.557-.724.554-.674.446-.721.508-.341.221-.5-.333-.894-.559-.952-.5-.947-.5-.891-.446-.949-.387h-.112l-.892-.395-1.169-.39-8.82,3.3-.224.384-.056.228L305.5,113v.554l.112.279.167.281.39.392.949.054.618.114.666.109.611.109.674.169.614.222.671.225.608.225.227.11.055.059-.559.052-.666.059-.727.05h-2.68l-.611-.05-.674-.059-.614-.052-.614-.117-.613-.108-.668-.111-.616-.112-.612-.171-.616-.163-.612-.169-.611-.226-.613-.22-.619-.226-.558-.22-1.223-.558-1.117-.614-1.174-.671-1.061-.667-1.061-.728-1-.838-.951-.835-.945-.893-.9-.951-.836-.943-.78-1.01-.726-1.06-.672-1.061-.665-1.113-.393-.782-.167-.337-.5-1.171-.221-.61-.224-.618-.221-.607-.227-.615-.165-.614-.165-.614-.116-.616-.165-.613-.113-.615-.053-.611-.117-.67-.055-.615-.056-.669-.052-.611V88.5l.052-.666.056-.671.055-.616.117-.667.053-.613.113-.613.165-.674.116-.611.165-.611.165-.618.227-.612.221-.615.224-.615.221-.613.5-1.171.167-.336.393-.779.665-1.117.672-1.061.726-1,.78-1.005.836-.947.9-.952,1-.893.943-.835,1.064-.783,1.058-.781,1.12-.667,1.116-.614,1.117-.615,1.171-.5.612-.282.613-.22.617-.226.613-.169.609-.22.616-.114.612-.163.564-.17.667-.109.612-.059.613-.109.617-.059.615-.054.668-.056h2.565l.67.056.613.054.672.059.613.109.616.059.669.109.612.17.615.108.613.169.612.167.615.221.617.167.608.226.563.277,1.171.5,1.118.616,1.11.611,1.06.725,1.063.728,1,.782.946.888.952.893.951,1.01.891,1,.782,1.06.777,1,.675,1.118.611,1.113.614,1.119.5,1.172.222.613.22.556.224.614.171.557.164.614.172.614.166.614.109.612.118.612.111.614.05.673.117.613.056.615V88.5l.055.616ZM252.769,68.249l-6.416-14.115h-3.794L209.3,125.216h11.549l10.6-24.942H256.73l10.043,24.942H278.72l-3.52-7.646Zm-8.761,23.823h-8.643l8.643-19.918.336-.782,8.314,20.7Z" transform="translate(-209.245 -53.798)" fill="#1a1818" fill-rule="evenodd"/>
      <path id="Path_290" data-name="Path 290" d="M466.748,157.8h-1.561l-11.439,24.5H458.1l3.571-8.429h8.315l3.408,8.429h4.464Zm-.947,12.891h-2.624l2.624-6.08.11-.227,2.514,6.307Zm-26-12.834-1.01-.219-.943-.115-.9-.112-.893-.109-.889-.057h-.84l-1.341.057-1.338.169-1.228.22-1.17.394-1.063.5-1,.563-.894.672-.836.834-.779.892-.615.945-.56,1.063-.447,1.17-.335,1.228-.278,1.281-.111,1.4-.055,1.447.055,1.456.111,1.391.278,1.286.335,1.229.447,1.172.5,1.053.673.95.725.894.778.783.951.672.949.615,1.115.44,1.115.394,1.23.278,1.281.111,1.393.058h1.009l1.058-.111,1.005-.117.952-.219,1-.278.947-.285.893-.388,1.171-.556V177l-1.618.835-.894.394-.889.337-.9.272-.838.226-.837.168-.836.11h-1.729l-.838-.11-.782-.22-.726-.286-.725-.328-.614-.394-.612-.5-.559-.609-.5-.614-.446-.724-.337-.726-.333-.841-.223-.831-.167-.954-.113-1v-2.233l.113-1,.167-1.01.223-.892.279-.893.336-.724.388-.726.5-.666.5-.563.553-.5.618-.387.671-.335.723-.279.78-.161.839-.118.894-.052H435l.726.112.778.109.893.167.952.222,1,.282,1.116.331,1.784.614v-4.126l-1.4-.337Zm-93.019-.057h-.614l-11.38,24.5h4.349l3.571-8.429h8.261l3.4,8.429h4.469l-11.1-24.5Zm0,12.891h-2.62l2.62-6.08.112-.227,2.511,6.307Zm22.155-9.482h8.313v21.093h4.241V161.213h8.367v-3.352H368.936Zm34.315,21.093h4.235V157.861h-4.235Zm-79.018-20.148-.22-.665-.276-.617-.338-.555-.446-.5-.446-.454-.56-.387-.613-.278-.724-.278-.725-.227-.837-.169-.947-.108-.952-.061h-7.922v24.445h4.243v-9.379h2.118l1.058-.11.114-.058.892-.111.947-.277.893-.278.84-.393.785-.5.723-.506.616-.615.552-.613.45-.724.392-.726.274-.833.228-.84.109-.945.054-.951v-.836l-.112-.723Zm-4.127,2.568-.054.555-.055.5-.112.5-.167.441-.167.453-.279.388-.28.336-.333.336-.393.278-.446.279-.444.226-.5.169h-.112l-.445.11-.616.108-.67.053-.673.058h-.886v-8.312h1.559l.727.053h.612l.391.056.223.059.5.051.5.168.394.118.333.16.281.168.28.227.219.219.167.279.17.337.115.336.109.388.054.394Zm-31.3,5.97,1-.666.836-.782.731-.841.555-.944.392-1,.282-1.119.052-1.229v-.726l-.11-.665-.169-.672-.222-.614-.284-.556-.331-.5-.392-.5-.447-.446-.5-.4-.609-.33-.617-.278-.669-.227-.668-.169-.783-.108-.782-.061h-8.42v24.445h4.18v-9.993h2.456l.782,1.227,5.912,8.766h5.19l-8.033-11.332Zm-1.285-3.512-.618.614-.78.445-1.005.39h-.052l-1.17.219-1.45.059h-.618v-7.7H283.5l1.173.053.391.115.616.051.834.286.67.328.5.446.332.563.227.609.053.783-.053,1.059-.281.893Zm-34.765-9.38h-.613L244,175.217l-3.292,7.089h4.352l3.572-8.429h8.313l3.349,8.429h4.519l-11.155-24.5Zm0,12.891h-2.622l2.622-6.08.114-.227,2.507,6.307ZM226.7,178.23l-.9.337-.893.272-.84.226-.836.168-.834.11h-1.732l-.835-.11-.781-.22-.782-.286-.672-.328-.669-.394-.559-.5-.557-.609-.5-.614-.448-.724-.33-.726-.337-.841-.223-.831-.171-.954-.112-1-.054-1.121.054-1.112.112-1,.171-1.01.223-.892.278-.893.336-.724.389-.726.444-.666.561-.563.555-.5.615-.387.67-.335.725-.279.782-.161.834-.118.892-.052h.619l.728.112.835.109.892.167.945.222,1.01.282,1.112.331,1.729.614v-4.126l-1.394-.337-1-.168-1.01-.219-.944-.115-.949-.112-.894-.109-.836-.057h-.842l-1.39.057-1.286.169-1.226.22-1.17.394-1.064.5-1,.563-.892.672-.836.834-.781.892-.616.945-.556,1.063-.445,1.17-.333,1.228-.283,1.281-.109,1.4-.06,1.447.06,1.456.109,1.391.228,1.286.388,1.229.39,1.172.56,1.053.611.95.724.894.839.783.949.672.95.615,1.058.44,1.173.394,1.226.278,1.281.111,1.345.058h1.058l1.058-.111,1.009-.117.946-.219,1-.278.947-.285.9-.388,1.173-.556V177l-1.62.835Z" transform="translate(-209.234 -70.208)" fill="#1a1818" fill-rule="evenodd"/>
    </g>
    <g id="Group_20" data-name="Group 20" transform="translate(59.03 53.471)">
      <g id="Group_18" data-name="Group 18" transform="translate(1.023 1.023)">
        <path id="Path_291" data-name="Path 291" d="M127,87.429l-4.047,9.161h8.136Z" transform="translate(-70.192 -59.881)" fill="#1a1818"/>
        <path id="Path_292" data-name="Path 292" d="M60.246,54.687V165.279H170.853V54.687Zm56.74,90.6a19.516,19.516,0,0,0,15.4-7.473l1.08-1.4,6.735,5.225-1.094,1.4a27.887,27.887,0,0,1-22.03,10.648h-.1c-15.278,0-27.709-12-27.709-26.743a26.141,26.141,0,0,1,2.88-11.86l23.1-48.806H118.9l23.5,50.338H132.8l-.526-.689a19.312,19.312,0,0,0-15.2-7.341c-10.627,0-19.205,8.235-19.205,18.359S106.442,145.289,116.986,145.289Z" transform="translate(-60.246 -54.687)" fill="#1a1818"/>
        <path id="Path_293" data-name="Path 293" d="M135.856,111.121l-1.645-3.912H117.646l-1.768,3.9a28.072,28.072,0,0,1,9.964-1.846A27.5,27.5,0,0,1,135.856,111.121Z" transform="translate(-69.071 -63.019)" fill="#1a1818"/>
      </g>
      <g id="Group_19" data-name="Group 19">
        <path id="Path_294" data-name="Path 294" d="M126.7,84.432l-5.613,12.706h11.283Z" transform="translate(-68.873 -58.382)" fill="#1a1818" fill-rule="evenodd"/>
        <path id="Path_295" data-name="Path 295" d="M125.544,110.1a26.534,26.534,0,0,1,11.869,2.809l-2.906-6.912H116.6l-3.142,6.933a26.868,26.868,0,0,1,12-2.83Z" transform="translate(-67.664 -61.802)" fill="#1a1818" fill-rule="evenodd"/>
        <path id="Path_296" data-name="Path 296" d="M117.092,53.471H59.03V166.11H171.683V53.471Zm-.3,92.649h.092a20.509,20.509,0,0,0,16.122-7.874l.453-.586,5.113,3.966-.461.59a26.872,26.872,0,0,1-21.227,10.254h-.092c-14.716,0-26.685-11.539-26.685-25.719a25.093,25.093,0,0,1,2.767-11.394l22.838-48.249h2.343L140.606,115.4h-7.492l-.219-.287a20.333,20.333,0,0,0-16.013-7.743h-.088c-11.106,0-20.145,8.7-20.145,19.382S105.687,146.12,116.794,146.12Z" transform="translate(-59.03 -53.471)" fill="#1a1818" fill-rule="evenodd"/>
      </g>
    </g>
  </g>
</svg>
